<?xml version="1.0" encoding="UTF-8"?>
<svg id="Capa_1" xmlns="http://www.w3.org/2000/svg" version="1.1" viewBox="0 0 2537 384">
  <!-- Generator: Adobe Illustrator 29.8.1, SVG Export Plug-In . SVG Version: 2.1.1 Build 2)  -->
  <defs>
    <style>
      .st0 {
        fill: #fff;
      }
    </style>
  </defs>
  <path class="st0" d="M572.85,318.89c-1.16,1.03-1.24.97-2.81,2.64-34.38,36.54-81.24,50.67-130.56,48.49-58.62-2.59-116.03-33.66-142.02-87.98-28.94-60.48-24.54-131.6,14.05-187.03,25.59-36.77,61.76-59.11,106.82-66.18,10.12-1.59,18.33-.97,28.19-1.81,17.19-1.47,38.75,1.49,55.82,6.14,62.94,17.13,106.05,78.59,113.64,141.36.79,6.5.52,11.7,1,18,3.16,41.06-12.26,86.57-38.49,119.47-.91,1.14-5.3,6.6-5.64,6.9ZM436.66,95.16c-93.75,8.73-107.65,164.21-23.7,198.38,19.14,7.79,51,7.94,70.07,0,33.03-13.76,53.67-51.62,55.98-86.02,4.32-64.33-33.45-118.77-102.36-112.36Z"/>
  <path class="st0" d="M99,32l-1,130c2.06-.4,2.54-2.85,3.51-3.99,32.94-38.64,63.68-78.9,96-118,2.23-2.7,4.91-5.14,6.99-8.01h95.5l-128.88,153.5,134.88,177c.23,3.11-1.05.5-1.5.5h-94c-4.92-5.2-8.62-11.39-13.01-16.99-30.32-38.69-60.23-77.9-90-117-2.91-3.82-7.06-7.39-8.49-12.01l-2,.5,1,145.5H24V32h75Z"/>
  <path class="st0" d="M719,32v213.5c0,.36.79,5.71.98,7.02,5.4,36.61,33.14,48.88,67.56,46.52,27.1-1.86,44.75-19.8,50.31-45.69,1.57-7.31.32-14.77,2.17-21.83l-.02-199.52h76l.02,222.52c-4.58,64.05-46.54,105.5-109.54,113.46-50.85,6.43-104.7-2.34-138.51-44.45-16.81-20.93-21.74-46.4-24.99-72.01l.02-219.52h76Z"/>
  <path class="st0" d="M1032,32v132c5.79-4.96,9.79-11.98,14.51-17.99,25.72-32.7,52.2-65.14,77.98-98.02,4.1-5.23,7.68-10.93,12.01-15.99h87.5l-119.96,154.41,130.96,176.59h-94.5l-71-95c-10.66-15.42-21.81-30.86-33.01-45.99-1.26-1.7-2.78-3.73-4.49-5.01v146h-74.5c-1.4,0-1.59-3.23-1.54-4.53,2.57-65.31.04-132.05,0-196.93l.04-129.54h76Z"/>
  <path class="st0" d="M1384.5,134c2.84,2.31,2.66,6.36,3.65,9.35,13.46,40.32,27.16,80.93,39.03,121.97l4.32,11.68.5-143h30.5c.26,0,1,1.14,1.47,1.5.01.37-.97.71-.97,1v225.5c-.78.23-1.2-1-1.5-1h-31.5l-43.5-140-1.5,140h-31v-227h30.5Z"/>
  <path class="st0" d="M1774.5,134c1.33.11,5.27.69,7.02.98,20.27,3.42,36.44,16.95,42.3,36.7,4.59,15.47,4.86,44.07,0,59.63-3.96,12.67-12.81,24.77-25.82,28.68l34,101h-37l-29.01-94.99h-9.99s0,94.99,0,94.99h-34c-.23-.78,1-1.2,1-1.5v-225.5h51.5ZM1756,238h17.5c.13,0,.49-.73,1.15-.85,1.92-.37,4.72-.65,6.38-1.62.35-.2,4.31-3.29,4.5-3.5.69-.8,2.48-4.7,3.01-5.99,4.31-10.4,4.85-33.4,2.31-44.38-1.94-8.38-6.8-15.4-15.5-17.5-1.36-.33-5.49-1.05-6.83-1.17-4.01-.35-8.45.29-12.52.02v75Z"/>
  <path class="st0" d="M1841,361l40.51-227h42.49c.17,2.12-.25,4.45-.02,6.52.74,6.69,2.89,14.33,4.04,20.96,11.12,63.92,23.26,128.24,34.96,192.04.43,2.35,1.76,5.03,2.02,7.48h-37l-9-60h-31.99c-.88,2.82-.57,5.75-.99,8.52-2.12,14.04-5.69,29.99-7.04,43.96-.23,2.41.2,5.07.02,7.52h-38ZM1915,273l-12.5-82-11.5,82h24Z"/>
  <path class="st0" d="M2314,134l24.5,176,.48-8.52c8.54-52.46,14.76-104.48,23.04-156.96l1.04-8.96c.1-.38,1.32-1.56,1.44-1.56h33.5l-39.02,226.98-41.43-.03-1.5-1.5-36.05-225.45h34Z"/>
  <path class="st0" d="M2082,209h-33v-28.5c0-.42-1.73-6.5-2.19-7.81-3.85-11.01-17.94-13.7-27.2-7.58-1.74,1.15-1.38,2.43-1.76,2.78-.36.33-1.39-.08-1.72.21-.59.5-2.91,7.99-3.15,9.39-.26,1.54.22,3.41.04,5.04-4.74,41.78,1.46,88.54-1.06,131.02,1.44,5.44,1.3,14.3,6.04,17.96,4.53,3.49,10.95,4.13,16.51,3.52,4.14-.45,6.76-2.68,10.01-4.99,1.6-2.91,2.87-6.23,3.49-9.51.29-1.54.88-5.51,1-7,.63-7.89-.5-16.54-.02-24.52h34c-.1,1.48.17,3.03.02,4.51-1.58,14.95.16,31.95-6.48,46.53-4.79,10.52-13.3,18.05-24.19,21.81-23.67,8.18-57.2,2.79-67.88-22.81-4.07-9.75-3.75-15.5-4.44-25.56-2.99-43.49.13-88.16-1.04-132,1.8-3.2.62-6.65,1-10,2.05-17.81,15.2-33.81,32.68-38.32,11.59-2.99,26.31-2.84,37.68,1,15.47,5.23,26.91,20.37,29.68,36.32.2,1.18.98,6.65.98,7.02v30c0,.3,1.23.72,1,1.5Z"/>
  <path class="st0" d="M2504,134c-1.73,2.1-.14,2.81.02,4.49.32,3.37-.79,5.14-1.05,7.98-.5,5.31,2,10.92,1.04,16.54h-54v68.5c0,.3-1.23.72-1,1.5h44.5l1.5,1.5v24.5h-45v72.5c0,.14-1.52,1.08-1,2.5h55c.17,2.12-.24,4.44-.02,6.52.12,1.09.97,1.93,1.04,2.96.38,5.7-.32,11.78-.02,17.52h-89v-227h88Z"/>
  <path class="st0" d="M1696,134v27.5c0,.3,1.23.72,1,1.5h-53v71c.78.23,1.2-1,1.5-1h41.5v24.5c0,.3,1.23.72,1,1.5h-44v75h55v27h-89v-227h86Z"/>
  <path class="st0" d="M1588,134v29h-36v196.5c0,.3,1.23.72,1,1.5h-35v-198h-36c-.74-1.66,1-3.31,1-3.5v-25.5h105Z"/>
  <path class="st0" d="M2200,134c-.18,2.79.25,5.75.02,8.52-.5,5.9-1.63,11.8-1.04,18,.11,1.16.84,1.57,1.02,2.48h-33v198h-34v-198h-35v-26.5c0-.29-.98-.63-.97-1,.46-.36,1.2-1.5,1.47-1.5h101.5Z"/>
  <rect class="st0" x="2224" y="134" width="34" height="227"/>
  <rect class="st0" x="1292" y="134" width="32" height="227"/>
</svg>